<?xml version="1.0" encoding="UTF-8" standalone="no"?>
<svg
   xmlns:dc="http://purl.org/dc/elements/1.1/"
   xmlns:cc="http://creativecommons.org/ns#"
   xmlns:rdf="http://www.w3.org/1999/02/22-rdf-syntax-ns#"
   xmlns:svg="http://www.w3.org/2000/svg"
   xmlns="http://www.w3.org/2000/svg"
   xmlns:sodipodi="http://sodipodi.sourceforge.net/DTD/sodipodi-0.dtd"
   xmlns:inkscape="http://www.inkscape.org/namespaces/inkscape"
   viewBox="0 0 35 35"
   version="1.1"
   id="svg4"
   sodipodi:docname="icon.svg"
   inkscape:version="0.92.2 5c3e80d, 2017-08-06">
  <metadata
     id="metadata10">
    <rdf:RDF>
      <cc:Work
         rdf:about="">
        <dc:format>image/svg+xml</dc:format>
        <dc:type
           rdf:resource="http://purl.org/dc/dcmitype/StillImage" />
        <dc:title></dc:title>
      </cc:Work>
    </rdf:RDF>
  </metadata>
  <defs
     id="defs8" />
  <sodipodi:namedview
     pagecolor="#ffffff"
     bordercolor="#666666"
     borderopacity="1"
     objecttolerance="10"
     gridtolerance="10"
     guidetolerance="10"
     inkscape:pageopacity="0"
     inkscape:pageshadow="2"
     inkscape:window-width="1540"
     inkscape:window-height="750"
     id="namedview6"
     showgrid="false"
     inkscape:zoom="6.7428571"
     inkscape:cx="45.395967"
     inkscape:cy="14.661578"
     inkscape:window-x="328"
     inkscape:window-y="109"
     inkscape:window-maximized="0"
     inkscape:current-layer="svg4" />
  <path
     d="M 17.5,35 C 1.9080808,35 -5.8975554,16.150075 5.1262599,5.1262599 16.150075,-5.8975554 35,1.9080808 35,17.5 34.988978,27.160414 27.160414,34.988978 17.5,35 Z m 0,-33.06 C 3.6365564,1.94 -3.3037693,18.700276 6.4979774,28.502023 16.299724,38.303769 33.06,31.363444 33.06,17.5 33.054484,8.9087352 26.091265,1.9455161 17.5,1.94 Z"
     id="path2"
     inkscape:connector-curvature="0"
     sodipodi:nodetypes="cscccscc" />
  <g
     id="g4"
     transform="matrix(0.30064568,0,0,0.30064568,2.4504228,2.3752614)">
    <path
       d="M 20,87 H 80 V 37 H 20 Z m 2,-12 h 9 V 85 H 22 Z M 55,63 V 73 H 45 V 63 Z M 45,61 V 51 H 55 V 61 Z M 43,73 H 33 V 63 h 10 z m 0,2 V 85 H 33 V 75 Z m 2,0 H 55 V 85 H 45 Z m 12,0 H 67 V 85 H 57 Z m 0,-2 V 63 H 67 V 73 Z M 69,63 h 9 v 10 h -9 z m 0,-2 V 51 h 9 v 10 z m -2,0 H 57 V 51 H 67 Z M 57,49 V 39 h 10 v 10 z m -2,0 H 45 V 39 H 55 Z M 43,49 H 33 V 39 h 10 z m 0,2 V 61 H 33 V 51 Z M 31,61 H 22 V 51 h 9 z m 0,2 V 73 H 22 V 63 Z M 69,85 V 75 h 9 V 85 Z M 78,49 H 69 V 39 h 9 z M 31,39 V 49 H 22 V 39 Z"
       id="path6"
       inkscape:connector-curvature="0"
       style="fill:#000000" />
    <path
       d="m 72,22 h -2 v -6.5 c 0,-1.104 -0.896,-2 -2,-2 -1.104,0 -2,0.896 -2,2 V 22 H 34 v -6.5 c 0,-1.104 -0.896,-2 -2,-2 -1.104,0 -2,0.896 -2,2 V 22 h -2 c -4.418,0 -8,3.082 -8,7.5 V 34 H 80 V 29.5 C 80,25.082 76.418,22 72,22 Z m -40.002,9.5 c -2.21,0 -4,-1.79 -4,-4 0,-1.479 0.811,-2.754 2.002,-3.447 V 27.5 c 0,1.104 0.896,2 2,2 1.104,0 2,-0.896 2,-2 v -3.444 c 1.189,0.693 1.998,1.968 1.998,3.444 0,2.21 -1.79,4 -4,4 z m 36,0 c -2.21,0 -4,-1.79 -4,-4 0,-1.479 0.811,-2.754 2.002,-3.447 V 27.5 c 0,1.104 0.896,2 2,2 1.104,0 2,-0.896 2,-2 v -3.444 c 1.189,0.693 1.998,1.968 1.998,3.444 0,2.21 -1.79,4 -4,4 z"
       id="path8"
       inkscape:connector-curvature="0"
       style="fill:#000000" />
    <rect
       x="35"
       y="41"
       width="6"
       height="6"
       id="rect10"
       style="fill:#000000" />
    <rect
       x="59"
       y="65"
       width="6"
       height="6"
       id="rect12"
       style="fill:#000000" />
    <rect
       x="47"
       y="65"
       width="6"
       height="6"
       id="rect14"
       style="fill:#000000" />
  </g>
</svg>
